<?xml version="1.0" encoding="utf-8"?>
<!-- Generator: Adobe Illustrator 27.1.0, SVG Export Plug-In . SVG Version: 6.00 Build 0)  -->
<svg version="1.1" id="Calque_1" xmlns="http://www.w3.org/2000/svg" xmlns:xlink="http://www.w3.org/1999/xlink" x="0px" y="0px"
	 viewBox="0 0 512 512" style="enable-background:new 0 0 512 512;" xml:space="preserve">
<style type="text/css">
	.st0{fill:#0000FF;}
</style>
<g id="_01_align_center">
	<path class="st0" d="M373.3,19.6C324.4,20.3,279.7,47.2,256,90c-23.7-42.8-68.4-69.6-117.3-70.4C58.9,23-3,90.2,0,170
		c0,144.5,233.7,311.5,243.7,318.5l12.3,8.7l12.3-8.7c9.9-7,243.7-174,243.7-318.5C515,90.2,453.1,23,373.3,19.6z M256,444.7
		C186.6,392.9,42.7,265.5,42.7,170c-3-56.2,39.8-104.3,96-107.7c56.2,3.4,99,51.5,96,107.7h42.7c-3-56.2,39.8-104.3,96-107.7
		c56.2,3.4,99,51.5,96,107.7C469.3,265.6,325.4,392.9,256,444.7z"/>
</g>
</svg>
