<?xml version="1.0" encoding="utf-8"?>
<!-- Generator: Adobe Illustrator 27.1.0, SVG Export Plug-In . SVG Version: 6.00 Build 0)  -->
<svg version="1.1" id="Layer_1" xmlns="http://www.w3.org/2000/svg" xmlns:xlink="http://www.w3.org/1999/xlink" x="0px" y="0px"
	 viewBox="0 0 512 512" style="enable-background:new 0 0 512 512;" xml:space="preserve">
<style type="text/css">
	.st0{fill:#0000FF;}
</style>
<path class="st0" d="M256,497.5l-12.2-8.5C233.8,482.1,0,318.3,0,170.7C0,88.3,62.3,21.3,138.7,21.3c49.3,0,92.8,27.9,117.3,69.8
	c24.5-41.8,68.1-69.8,117.3-69.8c76.4,0,138.7,67,138.7,149.3c0,147.6-233.8,311.5-243.8,318.3L256,497.5z M138.7,64
	c-52.1,0-96,48.9-96,106.7c0,97.9,144,223.8,213.3,274.6c69.3-50.8,213.3-176.9,213.3-274.6c0-57.8-43.9-106.7-96-106.7
	s-96,48.9-96,106.7v8.7l-33.9,33.9l85.3,85.3l-79.1,79.1l-30.1-30.1l48.9-48.9L183,213.5l51.2-51.2c-4.1-54-46.3-98.1-95.8-98.1
	L138.7,64z"/>
</svg>
