<?xml version="1.0" encoding="utf-8"?>
<!-- Generator: Adobe Illustrator 27.1.0, SVG Export Plug-In . SVG Version: 6.00 Build 0)  -->
<svg version="1.1" id="Layer_1" xmlns="http://www.w3.org/2000/svg" xmlns:xlink="http://www.w3.org/1999/xlink" x="0px" y="0px"
	 viewBox="0 0 512 512" style="enable-background:new 0 0 512 512;" xml:space="preserve">
<style type="text/css">
	.st0{fill:#0000FF;}
</style>
<path class="st0" d="M373.3,21.3c-35.2,0-67.6,14.3-92.2,37.8l58.2,58.2l-96,96l85.3,85.3l-79.1,79.1l-30.1-30.1l48.9-48.9
	L183,213.5l96-96l-61-61c-20.9-20.9-49.1-34.8-78.7-34.8c0,0-0.4,0-0.6,0C62.3,21.3,0,88.3,0,170.7C0,318.3,233.8,482.1,243.8,489
	l12.2,8.5l12.2-8.5c10-6.8,243.8-170.7,243.8-318.3C512,88.3,449.7,21.3,373.3,21.3z"/>
</svg>
